<svg xmlns="http://www.w3.org/2000/svg" viewBox="0 0 300 300" width="300" height="300">
    <!-- Technical Design Grid -->
    <g id="design-grid" opacity="0.15">
        <!-- Circles -->
        <circle cx="150" cy="150" r="145" fill="none" stroke="#cccccc" stroke-width="0.5" />
        <circle cx="150" cy="150" r="128" fill="none" stroke="#cccccc" stroke-width="0.5"
            stroke-dasharray="2,2" />
        <circle cx="150" cy="150" r="100" fill="none" stroke="#cccccc" stroke-width="0.5" />
        <circle cx="150" cy="150" r="70" fill="none" stroke="#cccccc" stroke-width="0.5" />

        <!-- Tech Grid Pattern -->
        <line x1="30" y1="150" x2="270" y2="150" stroke="#cccccc" stroke-width="0.5" />
        <line x1="150" y1="30" x2="150" y2="270" stroke="#cccccc" stroke-width="0.5" />

        <!-- Rule of Thirds -->
        <line x1="100" y1="0" x2="100" y2="300" stroke="#cccccc" stroke-width="0.5"
            stroke-dasharray="1,2" />
        <line x1="200" y1="0" x2="200" y2="300" stroke="#cccccc" stroke-width="0.5"
            stroke-dasharray="1,2" />
        <line x1="0" y1="100" x2="300" y2="100" stroke="#cccccc" stroke-width="0.5"
            stroke-dasharray="1,2" />
        <line x1="0" y1="200" x2="300" y2="200" stroke="#cccccc" stroke-width="0.5"
            stroke-dasharray="1,2" />

        <!-- Tech Angular Guides -->
        <line x1="60" y1="60" x2="240" y2="240" stroke="#cccccc" stroke-width="0.5"
            stroke-dasharray="2,3" />
        <line x1="240" y1="60" x2="60" y2="240" stroke="#cccccc" stroke-width="0.5"
            stroke-dasharray="2,3" />

        <!-- Horizontal Guides for Cap and Letters -->
        <line x1="0" y1="115" x2="300" y2="115" stroke="#cccccc" stroke-width="0.5"
            stroke-dasharray="5,5" />
        <line x1="0" y1="170" x2="300" y2="170" stroke="#cccccc" stroke-width="0.5"
            stroke-dasharray="5,5" />
        <line x1="0" y1="195" x2="300" y2="195" stroke="#cccccc" stroke-width="0.5"
            stroke-dasharray="5,5" />
        <line x1="0" y1="225" x2="300" y2="225" stroke="#cccccc" stroke-width="0.5"
            stroke-dasharray="5,5" />
    </g>

    <g id="logo">
        <!-- Base Circle -->
        <circle cx="150" cy="150" r="145" fill="#ffffff" stroke="#e8e8e8" stroke-width="2" />

        <!-- Tech Circuit Pattern Background -->
        <path
            d="M60 150 L90 150 L90 120 L120 120 L120 90 M240 150 L210 150 L210 120 L180 120 L180 90"
            stroke="#003366" stroke-width="2" stroke-dasharray="3,2" fill="none" />
        <path
            d="M60 150 L90 150 L90 180 L120 180 L120 210 M240 150 L210 150 L210 180 L180 180 L180 210"
            stroke="#003366" stroke-width="2" stroke-dasharray="3,2" fill="none" />

        <!-- Connection Nodes -->
        <circle cx="90" cy="150" r="3" fill="#8b2331" />
        <circle cx="120" cy="120" r="3" fill="#8b2331" />
        <circle cx="120" cy="180" r="3" fill="#8b2331" />
        <circle cx="210" cy="150" r="3" fill="#8b2331" />
        <circle cx="180" cy="120" r="3" fill="#8b2331" />
        <circle cx="180" cy="180" r="3" fill="#8b2331" />

        <!-- Academic Cap/Student Symbol -->
        <path d="M150 85 L100 115 L150 145 L200 115 Z" fill="#003366" />
        <path d="M150 85 L150 145" stroke="#003366" stroke-width="3" />
        <path d="M185 120 L185 150 C185 160, 170 170, 150 170 C130 170, 115 160, 115 150 L115 120"
            stroke="#003366" stroke-width="2" fill="none" />

        <!-- ASFT Lettering -->
        <path
            d="M100 195 L130 195 M115 195 L115 225 M140 195 L140 225 M140 210 L155 210 M165 195 L165 225 M175 195 L200 195 L200 225"
            stroke="#8b2331" stroke-width="8" stroke-linecap="round" stroke-linejoin="round"
            fill="none" />

        <!-- Digital Connection Lines -->
        <path d="M150 170 L150 195" stroke="#003366" stroke-width="1" stroke-dasharray="2,2" />
        <circle cx="150" cy="170" r="3" fill="#8b2331" />
        <circle cx="150" cy="195" r="3" fill="#8b2331" />

        <!-- Tech Education Symbols -->
        <rect x="82" y="230" width="12" height="20" rx="2" fill="#003366" />
        <rect x="97" y="225" width="12" height="25" rx="2" fill="#003366" />
        <rect x="112" y="220" width="12" height="30" rx="2" fill="#003366" />

        <path d="M200 230 L180 230 L190 215 Z" fill="#8b2331" />
        <path d="M200 230 L220 230 L210 215 Z" fill="#8b2331" />

        <!-- University Color Accent Ring -->
        <circle cx="150" cy="150" r="128" fill="none" stroke="#8b2331" stroke-width="4"
            stroke-dasharray="5,15" />
    </g>
</svg>