<svg xmlns="http://www.w3.org/2000/svg" viewBox="0 0 300 300" width="300" height="300">
    <!-- Professional Design Grid based on Golden Ratio -->


    <g id="logo">
        <!-- Base Circle -->
        <circle cx="150" cy="150" r="145" fill="#ffffff" stroke="#e8e8e8" stroke-width="2" />

        <!-- Cultural Motif Background Element -->
        <path d="M150 30 A120 120 0 0 1 270 150 A120 120 0 0 1 150 270"
            fill="none" stroke="#f0a830" stroke-width="6"
            stroke-dasharray="12,8" stroke-linecap="round" />

        <!-- Interior Pattern - Represents Cultural Diversity -->
        <path d="M150 45 A105 105 0 0 1 255 150 A105 105 0 0 1 150 255"
            fill="none" stroke="#2a5698" stroke-width="4"
            stroke-dasharray="2,8" stroke-linecap="round" />

        <!-- Artistic Brush Stroke C - More Refined -->
        <path d="M90 95 C65 125, 65 175, 90 205 C105 225, 130 230, 150 220"
            fill="none" stroke="#2a5698" stroke-width="15"
            stroke-linecap="round" opacity="0.9" />

        <!-- Artistic Brush Stroke H - More Dynamic -->
        <path
            d="M155 95 L155 205 M155 150 C155 150, 170 147, 200 147 M200 95 C195 110, 195 190, 200 205"
            fill="none" stroke="#c13832" stroke-width="12"
            stroke-linecap="round" stroke-linejoin="round" opacity="0.9" />

        <!-- Cultural Heritage Symbol - Traditional House Form -->
        <path d="M150 50 L138 65 L162 65 Z" fill="#c13832" />

        <!-- Flourish Elements - Representing Arts and Creativity -->
        <g id="artistic-elements" transform="translate(230,150) scale(0.9)">
            <!-- Paintbrush Stroke -->
            <path d="M-20 -30 C0 -10, 20 -20, 30 10"
                fill="none" stroke="#f0a830" stroke-width="4" stroke-linecap="round" />

            <!-- Musical Note Symbol -->
            <path d="M10 -20 L10 15 C0 20, -15 15, -15 0 C-15 -10, 0 -15, 10 -10"
                fill="#c13832" opacity="0.85" />

            <!-- Abstract Weaving Pattern -->
            <path d="M-20 30 L20 0 M-20 0 L20 30" stroke="#2a5698"
                stroke-width="3" stroke-linecap="round" opacity="0.8" />
        </g>

        <!-- Subtle Inner Ring - Represents Community -->
        <circle cx="150" cy="150" r="130" fill="none" stroke="#f0a830"
            stroke-width="1.5" stroke-dasharray="1,6" opacity="0.6" />
    </g>

    <g id="design-grid" opacity="0.15">
        <!-- Golden Ratio Circles -->
        <circle cx="150" cy="150" r="185.4" fill="none" stroke="#cccccc" stroke-width="0.5" />
        <circle cx="150" cy="150" r="150" fill="none" stroke="#cccccc" stroke-width="0.5" />
        <circle cx="150" cy="150" r="114.6" fill="none" stroke="#cccccc" stroke-width="0.5" />
        <circle cx="150" cy="150" r="92.7" fill="none" stroke="#cccccc" stroke-width="0.5" />
        <circle cx="150" cy="150" r="70.8" fill="none" stroke="#cccccc" stroke-width="0.5" />
        <circle cx="150" cy="150" r="43.8" fill="none" stroke="#cccccc" stroke-width="0.5" />

        <!-- Rule of Thirds -->
        <line x1="100" y1="0" x2="100" y2="300" stroke="#cccccc" stroke-width="0.5" />
        <line x1="200" y1="0" x2="200" y2="300" stroke="#cccccc" stroke-width="0.5" />
        <line x1="0" y1="100" x2="300" y2="100" stroke="#cccccc" stroke-width="0.5" />
        <line x1="0" y1="200" x2="300" y2="200" stroke="#cccccc" stroke-width="0.5" />

        <!-- Diagonal Guides -->
        <line x1="0" y1="0" x2="300" y2="300" stroke="#cccccc" stroke-width="0.5" />
        <line x1="300" y1="0" x2="0" y2="300" stroke="#cccccc" stroke-width="0.5" />
    </g>
</svg>